<?xml version="1.0" standalone="no"?>
<!DOCTYPE svg PUBLIC "-//W3C//DTD SVG 20010904//EN"
 "http://www.w3.org/TR/2001/REC-SVG-20010904/DTD/svg10.dtd">
<svg version="1.0" xmlns="http://www.w3.org/2000/svg"
 width="800.000000pt" height="600.000000pt" viewBox="0 0 800.000000 600.000000"
 preserveAspectRatio="xMidYMid meet">

<g transform="translate(0.000000,600.000000) scale(0.100000,-0.100000)"
fill="#000000" stroke="none">
<path d="M4189 5476 c-3 -3 -77 -13 -165 -21 -179 -18 -337 -47 -380 -70 -16
-8 -36 -15 -45 -15 -8 0 -19 -4 -25 -9 -5 -5 -27 -14 -49 -21 -99 -31 -280
-122 -393 -198 -131 -88 -511 -487 -607 -637 -18 -27 -49 -91 -69 -140 -20
-50 -41 -99 -46 -110 -27 -58 -73 -208 -121 -395 -38 -147 -48 -354 -29 -598
10 -129 61 -335 116 -463 28 -68 23 -91 -28 -134 -69 -59 -314 -158 -518 -211
-128 -32 -308 -34 -357 -4 -18 11 -33 26 -33 33 0 32 112 172 360 451 84 95
124 171 124 241 1 50 1 50 -32 53 -26 3 -55 -9 -123 -48 -188 -108 -493 -327
-611 -438 -120 -114 -196 -265 -205 -409 -7 -98 2 -117 93 -194 114 -97 245
-148 424 -165 146 -13 505 37 760 106 104 28 423 137 530 180 30 12 84 33 120
45 82 29 345 137 428 176 34 16 64 29 67 29 6 0 315 136 525 232 533 243 1066
514 1427 727 61 35 324 210 429 283 33 24 83 58 110 77 312 218 707 540 884
721 78 80 103 113 142 191 55 109 98 274 98 374 0 125 -73 213 -222 269 -56
21 -202 18 -338 -7 -47 -9 -128 -23 -180 -32 -128 -21 -286 -62 -337 -87 -69
-34 -96 -69 -101 -131 -4 -51 -2 -55 29 -81 32 -27 35 -28 113 -21 45 4 89 11
100 17 11 6 96 11 196 12 162 1 180 -1 199 -18 30 -28 26 -48 -23 -124 -56
-84 -137 -176 -284 -320 -198 -195 -317 -285 -553 -418 -239 -134 -645 -357
-837 -461 -243 -130 -353 -190 -397 -213 -189 -100 -271 -145 -430 -233 -526
-292 -743 -377 -834 -330 -36 19 -52 51 -92 188 -39 129 -48 198 -49 345 0
279 30 472 92 593 76 149 351 467 483 556 87 61 179 102 264 121 47 10 142 33
211 50 109 28 136 31 215 27 111 -6 322 -32 435 -53 47 -9 133 -17 192 -18
104 -1 107 0 145 30 84 67 159 217 157 315 -1 86 -89 193 -205 251 -152 75
-178 82 -459 108 -113 11 -223 23 -245 26 -22 3 -42 3 -46 0z"/>
<path d="M1679 4622 c-27 -24 -33 -37 -36 -83 -6 -87 37 -140 115 -141 62 -1
100 19 123 63 23 46 24 67 3 119 -20 50 -56 70 -123 70 -41 0 -56 -5 -82 -28z"/>
<path d="M6591 3704 c-46 -58 -11 -134 60 -134 45 0 79 34 79 79 0 73 -95 110
-139 55z"/>
<path d="M5674 3210 c-82 -41 -208 -188 -255 -297 -55 -129 -251 -363 -393
-470 -125 -93 -368 -196 -576 -244 -47 -11 -141 -23 -210 -26 -149 -7 -265 12
-348 57 l-53 29 -72 -39 c-74 -40 -139 -69 -357 -160 -69 -28 -134 -56 -145
-61 -11 -5 -63 -27 -115 -48 -52 -22 -96 -43 -97 -48 -4 -13 211 -163 294
-204 128 -64 508 -184 621 -195 46 -5 65 -12 72 -25 6 -10 10 -65 10 -122 0
-92 -3 -108 -23 -138 -12 -19 -36 -42 -52 -52 -17 -10 -94 -56 -172 -103 -246
-145 -357 -228 -472 -350 -60 -65 -81 -94 -81 -114 0 -20 6 -29 23 -34 29 -8
2095 -8 2125 0 37 10 27 48 -30 119 -28 36 -81 90 -117 121 -79 67 -344 244
-456 304 -114 62 -133 77 -156 123 -19 37 -21 51 -15 151 4 61 9 119 12 128 3
10 27 23 62 33 170 48 472 188 625 289 149 100 331 279 523 516 176 218 230
319 258 481 21 120 20 147 -5 214 -23 61 -73 110 -161 158 -44 23 -62 27 -137
27 -66 0 -95 -5 -127 -20z"/>
<path d="M2454 1691 c-34 -15 -64 -60 -64 -98 0 -73 91 -119 155 -77 29 19 48
72 40 107 -14 53 -82 88 -131 68z"/>
</g>
</svg>
